<mxfile host="app.diagrams.net" agent="Mozilla/5.0 (Windows NT 10.0; Win64; x64; rv:134.0) Gecko/20100101 Firefox/134.0" version="26.0.6">
  <diagram name="Página-1" id="O0S81MmNJCtSdqRgpaCV">
    <mxGraphModel dx="1877" dy="565" grid="1" gridSize="10" guides="1" tooltips="1" connect="1" arrows="1" fold="1" page="1" pageScale="1" pageWidth="827" pageHeight="1169" math="0" shadow="0">
      <root>
        <mxCell id="0" />
        <mxCell id="1" parent="0" />
        <mxCell id="egZh3JwNTfIZJBYz5ujx-19" style="edgeStyle=orthogonalEdgeStyle;rounded=0;orthogonalLoop=1;jettySize=auto;html=1;entryX=0;entryY=0.5;entryDx=0;entryDy=0;" edge="1" parent="1" source="egZh3JwNTfIZJBYz5ujx-1" target="egZh3JwNTfIZJBYz5ujx-17">
          <mxGeometry relative="1" as="geometry" />
        </mxCell>
        <mxCell id="egZh3JwNTfIZJBYz5ujx-1" value="Juegos pendientes" style="rounded=1;whiteSpace=wrap;html=1;fillColor=#dae8fc;strokeColor=#6c8ebf;" vertex="1" parent="1">
          <mxGeometry x="-670" y="100" width="120" height="60" as="geometry" />
        </mxCell>
        <mxCell id="egZh3JwNTfIZJBYz5ujx-2" value="Indicador (puntación&amp;nbsp; / duración)" style="rounded=1;whiteSpace=wrap;html=1;fillColor=#f5f5f5;fontColor=#333333;strokeColor=#666666;" vertex="1" parent="1">
          <mxGeometry x="-660" y="170" width="70" height="50" as="geometry" />
        </mxCell>
        <mxCell id="egZh3JwNTfIZJBYz5ujx-3" value="Poster" style="rounded=1;whiteSpace=wrap;html=1;fillColor=#f5f5f5;fontColor=#333333;strokeColor=#666666;" vertex="1" parent="1">
          <mxGeometry x="-740" y="170" width="60" height="30" as="geometry" />
        </mxCell>
        <mxCell id="egZh3JwNTfIZJBYz5ujx-4" value="Duración en horas" style="rounded=1;whiteSpace=wrap;html=1;fillColor=#f5f5f5;fontColor=#333333;strokeColor=#666666;" vertex="1" parent="1">
          <mxGeometry x="-740" y="115" width="60" height="30" as="geometry" />
        </mxCell>
        <mxCell id="egZh3JwNTfIZJBYz5ujx-5" value="Puntuación metacritic (usuarios)" style="rounded=1;whiteSpace=wrap;html=1;fillColor=#f5f5f5;fontColor=#333333;strokeColor=#666666;" vertex="1" parent="1">
          <mxGeometry x="-640" y="40" width="70" height="50" as="geometry" />
        </mxCell>
        <mxCell id="egZh3JwNTfIZJBYz5ujx-6" value="Nombre" style="rounded=1;whiteSpace=wrap;html=1;fillColor=#f5f5f5;fontColor=#333333;strokeColor=#666666;" vertex="1" parent="1">
          <mxGeometry x="-730" y="60" width="60" height="30" as="geometry" />
        </mxCell>
        <mxCell id="egZh3JwNTfIZJBYz5ujx-18" style="edgeStyle=orthogonalEdgeStyle;rounded=0;orthogonalLoop=1;jettySize=auto;html=1;entryX=1;entryY=0.5;entryDx=0;entryDy=0;" edge="1" parent="1" source="egZh3JwNTfIZJBYz5ujx-8" target="egZh3JwNTfIZJBYz5ujx-17">
          <mxGeometry relative="1" as="geometry" />
        </mxCell>
        <mxCell id="egZh3JwNTfIZJBYz5ujx-8" value="Usuarios" style="rounded=1;whiteSpace=wrap;html=1;fillColor=#dae8fc;strokeColor=#6c8ebf;" vertex="1" parent="1">
          <mxGeometry x="-130" y="100" width="120" height="60" as="geometry" />
        </mxCell>
        <mxCell id="egZh3JwNTfIZJBYz5ujx-12" value="ID (PK auto increment)" style="rounded=1;whiteSpace=wrap;html=1;fillColor=#f5f5f5;fontColor=#333333;strokeColor=#666666;" vertex="1" parent="1">
          <mxGeometry x="-570" y="170" width="60" height="50" as="geometry" />
        </mxCell>
        <mxCell id="egZh3JwNTfIZJBYz5ujx-13" value="Contraseña" style="rounded=1;whiteSpace=wrap;html=1;fillColor=#f5f5f5;fontColor=#333333;strokeColor=#666666;" vertex="1" parent="1">
          <mxGeometry x="-70" y="180" width="60" height="30" as="geometry" />
        </mxCell>
        <mxCell id="egZh3JwNTfIZJBYz5ujx-14" value="Nombre de usuario (PK)" style="rounded=1;whiteSpace=wrap;html=1;fillColor=#f5f5f5;fontColor=#333333;strokeColor=#666666;" vertex="1" parent="1">
          <mxGeometry x="-90" y="50" width="80" height="40" as="geometry" />
        </mxCell>
        <mxCell id="egZh3JwNTfIZJBYz5ujx-15" value="email" style="rounded=1;whiteSpace=wrap;html=1;fillColor=#f5f5f5;fontColor=#333333;strokeColor=#666666;" vertex="1" parent="1">
          <mxGeometry x="-150" y="180" width="60" height="30" as="geometry" />
        </mxCell>
        <mxCell id="egZh3JwNTfIZJBYz5ujx-17" value="Añade" style="rhombus;whiteSpace=wrap;html=1;" vertex="1" parent="1">
          <mxGeometry x="-390" y="90" width="80" height="80" as="geometry" />
        </mxCell>
        <mxCell id="egZh3JwNTfIZJBYz5ujx-20" value="N" style="text;html=1;align=center;verticalAlign=middle;resizable=0;points=[];autosize=1;strokeColor=none;fillColor=none;" vertex="1" parent="1">
          <mxGeometry x="-415" y="88" width="30" height="30" as="geometry" />
        </mxCell>
        <mxCell id="egZh3JwNTfIZJBYz5ujx-21" value="N" style="text;html=1;align=center;verticalAlign=middle;resizable=0;points=[];autosize=1;strokeColor=none;fillColor=none;" vertex="1" parent="1">
          <mxGeometry x="-315" y="88" width="30" height="30" as="geometry" />
        </mxCell>
      </root>
    </mxGraphModel>
  </diagram>
</mxfile>
